REM MD5 080bdd377e365b4b6266ea08b6bfe4dd
FILE "Tomb Raider (Europe) (Demo).bin" BINARY
  TRACK 01 MODE2/2352
    INDEX 01 00:00:00
  TRACK 02 AUDIO
    INDEX 00 00:30:58
    INDEX 01 00:32:58
  TRACK 03 AUDIO
    INDEX 00 03:47:26
    INDEX 01 03:49:26
REM LEADOUT 07:06:26
